# xmcd
# 
# Track frame offsets:
#     150
#     15480
#     29534
#     40306
#     54482
#     70031
#     83048
#     96530
#     110231
#     123766
#     137640
#     150463
#     167972
#     179748
#     194058
#     210349
#     224684
#     238201
#     252304
#     266220
#     280564
#     296286
# 
# Disc length: 4143
# 
# Revision: 3
# Processed by: cddbd v1.5.2PL0 Copyright (c) Steve Scherf et al.
# Submitted via: fre:ac v1.0.31
# 
DISCID=51102d16
DTITLE=Folk - People Take Warning! Muder Ballads and Disaster Songs, 1913-1938 Disc 3
DYEAR=2007
DGENRE=Folk
TTITLE0=Peddler and His Wife
TTITLE1=The Little Grave in Georgia
TTITLE2=Kenney Wagner's Surrender
TTITLE3=Henry Clay Beattie
TTITLE4=The Murder of the Lawson Family
TTITLE5=Naomi Wise
TTITLE6=Railroad Bill
TTITLE7=Frankie
TTITLE8=Trial of Richard Bruno Hauptmann, Part 1
TTITLE9=Trial of Richard Bruno Hauptmann, Part 2
TTITLE10=Lanse Des Belaires
TTITLE11=Darling Cora
TTITLE12=Billy Lyons and Stack O'Lee
TTITLE13=Tom Dooley
TTITLE14=The Story of Freda Bolt
TTITLE15=Pretty Polly
TTITLE16=Fingerprints Upon the Windowpane
TTITLE17=The Bluefield Murder
TTITLE18=Frankie Silvers
TTITLE19=Fate of Rhoda Sweeten
TTITLE20=Dupree Blues
TTITLE21=Poor Ellen Smith
EXTD=
EXTT0=
EXTT1=
EXTT2=
EXTT3=
EXTT4=
EXTT5=
EXTT6=
EXTT7=
EXTT8=
EXTT9=
EXTT10=
EXTT11=
EXTT12=
EXTT13=
EXTT14=
EXTT15=
EXTT16=
EXTT17=
EXTT18=
EXTT19=
EXTT20=
EXTT21=
PLAYORDER=
